<?xml version="1.0" encoding="utf-8"?>
<!-- Generator: Adobe Illustrator 18.1.1, SVG Export Plug-In . SVG Version: 6.00 Build 0)  -->
<svg version="1.1" id="Layer_1" xmlns="http://www.w3.org/2000/svg" xmlns:xlink="http://www.w3.org/1999/xlink" x="0px" y="0px"
	 viewBox="0 0 1024 768" enable-background="new 0 0 1024 768" xml:space="preserve">
<rect x="1.9" y="2.9" fill="#B50938" width="1024" height="768"/>
<g>
	<g>
		<path fill="none" stroke="#B50938" stroke-width="7" stroke-miterlimit="10" d="M788.7,531.8H246.6c-7.2,0-13-5.8-13-13v-74.2
			c0-7.1,5.8-13,13-13h542.1c7.1,0,13,5.9,13,13v74.2C801.7,525.9,795.9,531.8,788.7,531.8z"/>
		<circle fill="#FFFFFF" cx="522" cy="411.9" r="236.6"/>
		<circle fill="#663700" cx="522" cy="411.9" r="231.6"/>
		<circle fill="#B50938" stroke="#FFFFFF" stroke-width="4" stroke-miterlimit="10" cx="522" cy="411.9" r="183.4"/>
		<linearGradient id="SVGID_1_" gradientUnits="userSpaceOnUse" x1="522.9681" y1="471.0391" x2="522.9681" y2="341.8623">
			<stop  offset="0" style="stop-color:#C6906D"/>
			<stop  offset="0.2324" style="stop-color:#B07C54"/>
			<stop  offset="0.7241" style="stop-color:#784814"/>
			<stop  offset="0.8548" style="stop-color:#683902"/>
			<stop  offset="0.9194" style="stop-color:#663700"/>
		</linearGradient>
		<path fill="url(#SVGID_1_)" d="M345,363.6c101-27.4,215.3-30.5,354,0.2c0,0,7.5,38.5,6.4,53.2c-1.1,14.7-3.4,31.2-28.5,41.2
			c-25.1,9.9-211.9,16.8-244.6,10.7s-74.9-4-83.8-16c-8.9-12-6.9-35.8-6.9-35.8s-3-26.1,0.2-39.7C345,363.6,345,363.6,345,363.6z"/>
		<path fill="#FFCF82" d="M351.7,361.8c0,0,28.2-5.1,36.4-5.8c15.3-1.3,18.7,1.5,25.7,3.2c5.3,1.3,16.8-1.8,33,1
			c12.1,2.1,11,6.7-3.6,6c-11.2-0.5-29.7,12.2-7.4,12.2s58.9,1,47.8,12.2c-11.2,11.2-23.4,26.4-75.2,31.5c-51.8,5.1-65,6.1-65,6.1
			s-2,17.3,12.2,24.4c14.2,7.1,338.4,0,338.4,0l6.1-19.3c0,0-41.7-4.1-69.1-9.1c-27.4-5.1-46.5-12.8-42.7-24.4
			c5.3-16.3-29.5-20.3-40.6-23.4c-4.9-1.3-18.8-1.4-26-2.5c-9-1.4-16.4-5-15.3-6.7c2-3,22.3-9.8,6.1-10.3
			c-16.3-0.4-45.1,1.1-52.3-1.4s3-4.5,11.2-5.5c8.1-1,97.5-3,125,0c27.4,3,94.5,13.7,94.5,13.7l9.1,5.7l-4.6-6.3
			c0,0-66.6-16.9-138.2-21.1s-106.1,3.1-144,7.3S351.7,361.8,351.7,361.8z"/>
		<circle fill="none" stroke="#FFFFFF" stroke-width="4" stroke-miterlimit="10" cx="522" cy="411.9" r="183.4"/>
		<circle fill="none" stroke="#B50938" stroke-width="8" stroke-miterlimit="10" cx="522" cy="411.9" r="244.1"/>
		<path fill="#663700" stroke="#663700" stroke-miterlimit="10" d="M722.3,527.5c-39.9,68-114.3,115-199.5,115
			c-85.2,0-159.6-47-199.5-115H722.3z"/>
		<linearGradient id="SVGID_2_" gradientUnits="userSpaceOnUse" x1="523.7715" y1="632.1942" x2="523.7715" y2="539">
			<stop  offset="0" style="stop-color:#C6906D"/>
			<stop  offset="6.636313e-002" style="stop-color:#B37E57"/>
			<stop  offset="0.1803" style="stop-color:#976438"/>
			<stop  offset="0.2993" style="stop-color:#81501F"/>
			<stop  offset="0.4239" style="stop-color:#72420E"/>
			<stop  offset="0.5575" style="stop-color:#693A03"/>
			<stop  offset="0.7165" style="stop-color:#663700"/>
		</linearGradient>
		<path fill="url(#SVGID_2_)" d="M699,539c-32.3,56-107.2,93.2-176.3,93.2c-69,0-142-37.2-174.3-93.2H699z"/>
		<ellipse fill="#FFCF82" cx="523.3" cy="511.4" rx="90.9" ry="33.5"/>
		<path fill="#FFCF82" stroke="#FFFFFF" stroke-width="3" stroke-miterlimit="10" d="M786.8,525.6H248.4c-4.9,0-9-4-9-9v-69.8
			c0-5,4.1-9,9-9h538.4c5,0,9,4,9,9v69.8C795.8,521.6,791.7,525.6,786.8,525.6z"/>
	</g>
	<g>
		<g>
			<g>
				<g>
					<g>
						<path fill="#FFFFFF" d="M512,336h-12.7c0,0-32.3-23.3-36-57.1s48.6-31.1,48.6-31.1V336z"/>
						<path fill="#FFFFFF" d="M513,336h12.8c0,0,32.3-23.3,35.9-57.1c3.6-33.8-48.7-31.1-48.7-31.1V336z"/>
						<rect x="509" y="247.7" fill="#FFFFFF" width="9.7" height="87.7"/>
					</g>
					<path fill="#FFFFFF" d="M557.7,272.9c0,0,10.5-7.5,14.5-7.1c4,0.4,12.5,0.5,11.7,9.8c-0.8,9.3-5.6,11.1-13.1,15.8
						c-7.5,4.8-23.7,14.5-23.7,14.5L537,318.1v2.8c0,0,37.6-19.7,43.6-23.8c6-4,16-16.5,11.9-26.2c-4-9.7-7.1-14.5-20-13.7
						s-25.3,4-25.3,4L557.7,272.9z"/>
				</g>
				<ellipse fill="#663700" cx="513" cy="268.9" rx="39.5" ry="15.3"/>
			</g>
			<path fill="#B50938" stroke="#FFCF82" stroke-miterlimit="10" d="M519.1,272.5c0,0-9.7-31.8-8.1-40.7s16.5-30.6,19.3-33
				c2.8-2.4,9.3-11.7,10.5-18.5c1.2-6.8,2.8-21.4,0-27c-2.8-5.6-18.5-18.9-18.5-18.9l-2.8,4.8c0,0,9.3,11.7,9.7,16.5
				s-1.4,14.5-2.5,17.3s-20,27.4-20,27.4s-4,3.6-6.4,12.5c-2.4,8.9-2.4,29.4,2.8,39.1C508.2,261.6,519.1,272.5,519.1,272.5z"/>
			<path fill="#FFCF82" d="M503.8,204c0-1.2,0-2.4,0.1-3.6c0.4-9.8,2.8-20.5,7.1-28c4.8-8.5,11.8-20.3,16.7-26.8
				c4.9-6.5,10.3-17.5,8.3-30.8c-2-13.3-6.8-25.8-6.8-25.8s0,27.4-3.2,31.8c-3.2,4.4-13.3,20.1-18.9,27.8
				c-5.6,7.7-14.1,28.6-14.9,37.1c-0.8,8.5,0.4,22.6,1.6,27.4c1.2,4.8,5,12.9,5,12.9s-0.1-7.2,1.9-14.6L503.8,204z"/>
		</g>
		<rect x="505.1" y="330" fill="#FFFFFF" width="15.4" height="6.1"/>
	</g>
	<text transform="matrix(1.28 0 0 1 260.7134 504.9337)"><tspan x="0" y="0" fill="#663700" font-family="'ARJULIAN'" font-size="73.1573" letter-spacing="4.7">M</tspan><tspan x="61.8" y="0" fill="#663700" font-family="'ARJULIAN'" font-size="60.9644" letter-spacing="3.9">UD</tspan><tspan x="152.5" y="0" fill="#663700" font-family="'ARJULIAN'" font-size="65.5367" letter-spacing="4.7"> </tspan><tspan x="188.2" y="0" fill="#663700" font-family="'ARJULIAN'" font-size="73.1573" letter-spacing="4.7">C</tspan><tspan x="235.4" y="0" fill="#663700" font-family="'ARJULIAN'" font-size="60.9644" letter-spacing="3.9">REEK</tspan></text>
	
		<text transform="matrix(1.16 0 0 1 388.1259 590.5225)" fill="#FFFFFF" font-family="'ARJULIAN'" font-size="64.0126" letter-spacing="1.7">COFFEE</text>
</g>
</svg>
