<?xml version="1.0" encoding="utf-8"?>
<!-- Generator: Adobe Illustrator 18.1.1, SVG Export Plug-In . SVG Version: 6.00 Build 0)  -->
<svg version="1.1" id="Layer_1" xmlns="http://www.w3.org/2000/svg" xmlns:xlink="http://www.w3.org/1999/xlink" x="0px" y="0px"
	 viewBox="0 0 1024 768" enable-background="new 0 0 1024 768" xml:space="preserve">
<g>
	<rect fill="#93B2B2" width="1024" height="768"/>
	<path fill="#93B2B2" d="M1024.5,768.5H-0.5v-769h1025V768.5z M0.5,767.5h1023V0.5H0.5V767.5z"/>
</g>
<g>
	<path fill="#FFFFFF" d="M876,711.8H148c-5.5,0-10-4.5-10-10V223.1c0-5.5,4.5-10,10-10H876c5.5,0,10,4.5,10,10v478.7
		C886,707.3,881.5,711.8,876,711.8z"/>
	<path fill="#91A3AF" d="M876,713.8H148c-6.6,0-12-5.4-12-12V223.1c0-6.6,5.4-12,12-12H876c6.6,0,12,5.4,12,12v478.7
		C888,708.4,882.6,713.8,876,713.8z M148,215.1c-4.4,0-8,3.6-8,8v478.7c0,4.4,3.6,8,8,8H876c4.4,0,8-3.6,8-8V223.1c0-4.4-3.6-8-8-8
		H148z"/>
</g>
<rect x="138" y="315" fill="#91A3AF" width="748" height="4"/>
<rect x="138" y="412" fill="#91A3AF" width="748" height="2"/>
<rect x="138" y="509" fill="#91A3AF" width="748" height="2"/>
<rect x="138" y="607" fill="#91A3AF" width="748" height="2"/>
<text transform="matrix(1 0 0 1 377.5327 185.792)" fill="#FFFFFF" font-family="'MyriadPro-Regular'" font-size="72">Quiz App</text>
<g>
	<path fill="#FFFFFF" d="M194.2,491h-33.2c-5.5,0-10-4.5-10-10v-37.1c0-5.5,4.5-10,10-10h33.2c5.5,0,10,4.5,10,10V481
		C204.2,486.5,199.7,491,194.2,491z"/>
	<path fill="#ADADAD" d="M194.2,491.5h-33.2c-5.8,0-10.5-4.7-10.5-10.5v-37.1c0-5.8,4.7-10.5,10.5-10.5h33.2
		c5.8,0,10.5,4.7,10.5,10.5V481C204.7,486.8,199.9,491.5,194.2,491.5z M160.9,434.3c-5.2,0-9.5,4.3-9.5,9.5V481
		c0,5.2,4.3,9.5,9.5,9.5h33.2c5.2,0,9.5-4.3,9.5-9.5v-37.1c0-5.2-4.3-9.5-9.5-9.5H160.9z"/>
</g>
<g>
	<path fill="#FFFFFF" d="M194.2,392.3h-33.2c-5.5,0-10-4.5-10-10v-37.1c0-5.5,4.5-10,10-10h33.2c5.5,0,10,4.5,10,10v37.1
		C204.2,387.8,199.7,392.3,194.2,392.3z"/>
	<path fill="#ADADAD" d="M194.2,392.8h-33.2c-5.8,0-10.5-4.7-10.5-10.5v-37.1c0-5.8,4.7-10.5,10.5-10.5h33.2
		c5.8,0,10.5,4.7,10.5,10.5v37.1C204.7,388.1,199.9,392.8,194.2,392.8z M160.9,335.6c-5.2,0-9.5,4.3-9.5,9.5v37.1
		c0,5.2,4.3,9.5,9.5,9.5h33.2c5.2,0,9.5-4.3,9.5-9.5v-37.1c0-5.2-4.3-9.5-9.5-9.5H160.9z"/>
</g>
<g>
	<path fill="#FFFFFF" d="M194.2,591h-33.2c-5.5,0-10-4.5-10-10v-37.1c0-5.5,4.5-10,10-10h33.2c5.5,0,10,4.5,10,10V581
		C204.2,586.5,199.7,591,194.2,591z"/>
	<path fill="#ADADAD" d="M194.2,591.5h-33.2c-5.8,0-10.5-4.7-10.5-10.5v-37.1c0-5.8,4.7-10.5,10.5-10.5h33.2
		c5.8,0,10.5,4.7,10.5,10.5V581C204.7,586.8,199.9,591.5,194.2,591.5z M160.9,534.3c-5.2,0-9.5,4.3-9.5,9.5V581
		c0,5.2,4.3,9.5,9.5,9.5h33.2c5.2,0,9.5-4.3,9.5-9.5v-37.1c0-5.2-4.3-9.5-9.5-9.5H160.9z"/>
</g>
<g>
	<path fill="#FFFFFF" d="M393.5,694.3H160.9c-5.5,0-10-4.5-10-10v-43.7c0-5.5,4.5-10,10-10h232.5c5.5,0,10,4.5,10,10v43.7
		C403.5,689.8,399,694.3,393.5,694.3z"/>
	<path fill="#ADADAD" d="M393.5,694.8H160.9c-5.8,0-10.5-4.7-10.5-10.5v-43.7c0-5.8,4.7-10.5,10.5-10.5h232.5
		c5.8,0,10.5,4.7,10.5,10.5v43.7C404,690,399.2,694.8,393.5,694.8z M160.9,631.1c-5.2,0-9.5,4.3-9.5,9.5v43.7c0,5.2,4.3,9.5,9.5,9.5
		h232.5c5.2,0,9.5-4.3,9.5-9.5v-43.7c0-5.2-4.3-9.5-9.5-9.5H160.9z"/>
</g>
<text transform="matrix(1 0 0 1 156.7531 301.3767)" fill="#C6C6C6" font-family="'MyriadPro-Regular'" font-size="36">This is an object oriented quiz program</text>
<text transform="matrix(1 0 0 1 226.8832 374.1041)" fill="#C6C6C6" font-family="'MyriadPro-Regular'" font-size="36">First choice</text>
<text transform="matrix(1 0 0 1 226.8832 474.1038)" fill="#C6C6C6" font-family="'MyriadPro-Regular'" font-size="36">Second choice</text>
<text transform="matrix(1 0 0 1 226.8832 571.5068)" fill="#C6C6C6" font-family="'MyriadPro-Regular'" font-size="36">Third choice</text>
<text transform="matrix(1 0 0 1 156.7531 672.8055)" fill="#C6C6C6" font-family="'MyriadPro-Regular'" font-size="36">Next Question</text>
<text transform="matrix(1 0 0 1 165.8441 374.1041)" fill="#C6C6C6" font-family="'MyriadPro-Regular'" font-size="36">A</text>
<text transform="matrix(1 0 0 1 165.844 474.1035)" fill="#C6C6C6" font-family="'MyriadPro-Regular'" font-size="36">B</text>
<text transform="matrix(1 0 0 1 166.344 575.202)" fill="#C6C6C6" font-family="'MyriadPro-Regular'" font-size="36">C</text>
</svg>
