<?xml version="1.0" encoding="utf-8"?>
<!-- Generator: Adobe Illustrator 18.1.1, SVG Export Plug-In . SVG Version: 6.00 Build 0)  -->
<svg version="1.1" id="Layer_1" xmlns="http://www.w3.org/2000/svg" xmlns:xlink="http://www.w3.org/1999/xlink" x="0px" y="0px"
	 viewBox="0 0 1024 768" enable-background="new 0 0 1024 768" xml:space="preserve">
<rect fill="#258E73" width="1024" height="768"/>
<path fill="#72A596" d="M763.7,692.4H260.3c-5.5,0-10-4.5-10-10V85.6c0-5.5,4.5-10,10-10h503.4c5.5,0,10,4.5,10,10v596.9
	C773.7,687.9,769.2,692.4,763.7,692.4z"/>
<text transform="matrix(1 0 0 1 413.8961 146.831)" fill="#FFFFFF" font-family="'MyriadPro-Regular'" font-size="72">Forms</text>
<path fill="#FFFFFF" d="M722.1,284.5H301.9c-5.5,0-10-4.5-10-10v-28.1c0-5.5,4.5-10,10-10h420.3c5.5,0,10,4.5,10,10v28.1
	C732.1,280,727.6,284.5,722.1,284.5z"/>
<path fill="#FFFFFF" d="M722.1,384H301.9c-5.5,0-10-4.5-10-10v-28.1c0-5.5,4.5-10,10-10h420.3c5.5,0,10,4.5,10,10V374
	C732.1,379.5,727.6,384,722.1,384z"/>
<path fill="#FFFFFF" d="M722.1,642.9H301.9c-5.5,0-10-4.5-10-10V443.8c0-5.5,4.5-10,10-10h420.3c5.5,0,10,4.5,10,10v189.1
	C732.1,638.4,727.6,642.9,722.1,642.9z"/>
<text transform="matrix(1 0 0 1 302.2077 274.1039)" fill="#C4C6C5" font-family="'MyriadPro-Regular'" font-size="36">Name:</text>
<text transform="matrix(1 0 0 1 302.2077 371.5063)" fill="#C4C6C5" font-family="'MyriadPro-Regular'" font-size="36">Email:</text>
<text transform="matrix(1 0 0 1 302.2075 471.5067)" fill="#C4C6C5" font-family="'MyriadPro-Regular'" font-size="36">Message:</text>
</svg>
