<?xml version="1.0" encoding="utf-8"?>
<!-- Generator: Adobe Illustrator 19.2.0, SVG Export Plug-In . SVG Version: 6.00 Build 0)  -->
<svg version="1.1" id="Layer_1" xmlns="http://www.w3.org/2000/svg" xmlns:xlink="http://www.w3.org/1999/xlink" x="0px" y="0px"
	 viewBox="0 0 1024 768" style="enable-background:new 0 0 1024 768;" xml:space="preserve">
<style type="text/css">
	.st0{fill:#C8D9E8;}
	.st1{fill:#E7EDF2;}
	.st2{fill:#FFFFFF;}
	.st3{font-family:'ArialMT';}
	.st4{font-size:84px;}
</style>
<rect class="st0" width="1024" height="768"/>
<path class="st1" d="M332.3,744.5h-251c-2.8,0-5-2.3-5-5V546.9c0-2.8,2.3-5,5-5h251c2.8,0,5,2.3,5,5v192.6
	C337.3,742.2,335,744.5,332.3,744.5z"/>
<path class="st1" d="M637.8,517h-251c-2.7,0-5-2.3-5-5V319.4c0-2.8,2.3-5,5-5h251c2.8,0,5,2.3,5,5V512
	C642.8,514.7,640.6,517,637.8,517z"/>
<path class="st1" d="M945.6,744.5h-251c-2.8,0-5-2.3-5-5V546.9c0-2.8,2.3-5,5-5h251c2.8,0,5,2.3,5,5v192.6
	C950.6,742.2,948.4,744.5,945.6,744.5z"/>
<path class="st1" d="M332.3,517h-251c-2.8,0-5-2.3-5-5V319.4c0-2.8,2.3-5,5-5h251c2.8,0,5,2.3,5,5V512
	C337.3,514.7,335,517,332.3,517z"/>
<path class="st1" d="M945.6,517h-251c-2.8,0-5-2.3-5-5V319.4c0-2.8,2.3-5,5-5h251c2.8,0,5,2.3,5,5V512
	C950.6,514.7,948.4,517,945.6,517z"/>
<path class="st1" d="M637.8,744.5h-251c-2.7,0-5-2.3-5-5V546.9c0-2.8,2.3-5,5-5h251c2.8,0,5,2.3,5,5v192.6
	C642.8,742.2,640.6,744.5,637.8,744.5z"/>
<text transform="matrix(1 0 0 1 300.9092 157.2211)" class="st2 st3 st4">InstaGallery</text>
</svg>
